<svg width="178" height="117" viewBox="0 0 178 117" fill="none" xmlns="http://www.w3.org/2000/svg">
<rect y="43" width="82" height="69" rx="10" fill="#F76C6C"/>
<path d="M115.755 84.7114C115.562 87.3888 114.57 89.4966 112.782 91.0347C111.004 92.5728 108.657 93.3418 105.741 93.3418C102.551 93.3418 100.038 92.2708 98.2041 90.1289C96.3812 87.9756 95.4697 85.0247 95.4697 81.2764V79.7554C95.4697 77.3628 95.8913 75.255 96.7344 73.4321C97.5775 71.6092 98.7795 70.2135 100.34 69.2451C101.913 68.2653 103.736 67.7754 105.809 67.7754C108.68 67.7754 110.993 68.5444 112.748 70.0825C114.502 71.6206 115.516 73.7796 115.79 76.5596H110.663C110.537 74.9531 110.087 73.791 109.312 73.0732C108.549 72.3441 107.381 71.9795 105.809 71.9795C104.1 71.9795 102.818 72.5947 101.964 73.8252C101.121 75.0443 100.688 76.9412 100.665 79.5161V81.396C100.665 84.0848 101.069 86.0501 101.878 87.292C102.699 88.5339 103.986 89.1548 105.741 89.1548C107.324 89.1548 108.504 88.7959 109.278 88.0781C110.064 87.349 110.514 86.2267 110.628 84.7114H115.755ZM129.872 91.1201C128.653 92.6012 126.966 93.3418 124.813 93.3418C122.831 93.3418 121.315 92.7721 120.267 91.6328C119.23 90.4935 118.701 88.8244 118.678 86.6255V74.5088H123.617V86.4546C123.617 88.38 124.494 89.3428 126.249 89.3428C127.923 89.3428 129.074 88.7617 129.701 87.5996V74.5088H134.657V93H130.008L129.872 91.1201ZM144.295 69.9629V74.5088H147.457V78.1318H144.295V87.3604C144.295 88.0439 144.426 88.5339 144.688 88.8301C144.951 89.1263 145.452 89.2744 146.192 89.2744C146.739 89.2744 147.223 89.2345 147.645 89.1548V92.8975C146.677 93.1937 145.68 93.3418 144.654 93.3418C141.191 93.3418 139.425 91.5929 139.356 88.0952V78.1318H136.656V74.5088H139.356V69.9629H144.295Z" fill="#4E4E4E"/>
<path d="M154.464 86.0664C154.464 83.8203 155.213 81.9974 156.71 80.5977C158.24 79.1979 160.144 78.498 162.423 78.498C164.734 78.498 166.638 79.1979 168.136 80.5977C169.666 81.9974 170.431 83.8203 170.431 86.0664C170.431 88.2799 169.682 90.0866 168.185 91.4863C166.687 92.8535 164.767 93.5371 162.423 93.5371C160.112 93.5371 158.207 92.8535 156.71 91.4863C155.213 90.0866 154.464 88.2799 154.464 86.0664Z" fill="#5BB6E8"/>
<path d="M32.0547 68.1172V84.5063C32.0547 87.2293 31.2002 89.3826 29.4912 90.9663C27.7936 92.55 25.4694 93.3418 22.5186 93.3418C19.6133 93.3418 17.3062 92.5728 15.5972 91.0347C13.8882 89.4966 13.0166 87.3831 12.9824 84.6943V68.1172H18.1094V84.5405C18.1094 86.1698 18.4967 87.3604 19.2715 88.1123C20.0576 88.8529 21.14 89.2231 22.5186 89.2231C25.401 89.2231 26.8651 87.7078 26.9106 84.6772V68.1172H32.0547ZM45.4702 83.8911H41.3857V93H36.2588V68.1172H45.5044C48.4438 68.1172 50.7111 68.7723 52.3062 70.0825C53.9012 71.3927 54.6987 73.2441 54.6987 75.6367C54.6987 77.3343 54.3285 78.7528 53.5879 79.8921C52.8587 81.02 51.7479 81.9201 50.2554 82.5923L55.6387 92.7607V93H50.1357L45.4702 83.8911ZM41.3857 79.7383H45.5215C46.8089 79.7383 47.8058 79.4136 48.5122 78.7642C49.2186 78.1034 49.5718 77.1976 49.5718 76.0469C49.5718 74.8734 49.2357 73.9505 48.5635 73.2783C47.9027 72.6061 46.883 72.27 45.5044 72.27H41.3857V79.7383ZM63.7393 88.8813H74.6255V93H58.6123V68.1172H63.7393V88.8813Z" fill="white"/>
<line x1="89.25" y1="88.0357" x2="89.25" y2="74" stroke="#4E4E4E" stroke-width="1.5"/>
<line x1="89.25" y1="72.0357" x2="89.25" y2="58" stroke="#4E4E4E" stroke-width="1.5"/>
<line x1="89.25" y1="104.036" x2="89.25" y2="90" stroke="#4E4E4E" stroke-width="1.5"/>
</svg>
